<?xml version="1.0" encoding="UTF-8"?>
<!-- Generated by Pixelmator Pro 3.7.1 -->
<svg width="296" height="208" viewBox="0 0 296 208" xmlns="http://www.w3.org/2000/svg">
    <clipPath id="clipPath1">
        <path d="M 28.882449 27.275267 L 274.376737 26.783227 L 274.738697 207.376599 L 29.244409 207.868639 Z M 28.882449 27.275267"/>
    </clipPath>
    <g id="Group" clip-path="url(#clipPath1)">
        <clipPath id="clipPath2">
            <path d="M 274.230894 26.783519 L 28.882449 27.275267 L 29.174886 173.181209 L 58.23732 173.122959 L 58.306843 207.81039 L 114.721581 173.009749 L 274.523331 172.689461 Z M 274.230894 26.783519"/>
        </clipPath>
        <g id="g1" clip-path="url(#clipPath2)">
            <g id="g2">
                <clipPath id="clipPath3">
                    <path d="M 28.511901 26.901009 L 275.178093 26.40662 L 275.541535 207.739569 L 28.875344 208.233958 Z"/>
                </clipPath>
                <g id="g3" clip-path="url(#clipPath3)">
                    <clipPath id="clipPath4">
                        <path d="M 28.882449 27.275267 L 274.376737 26.783227 L 274.738697 207.376599 L 29.244409 207.868639 Z M 28.882449 27.275267"/>
                    </clipPath>
                    <g id="g4" clip-path="url(#clipPath4)">
                        <clipPath id="clipPath5">
                            <path d="M 274.230894 26.783519 L 28.882449 27.275267 L 29.174886 173.181209 L 58.23732 173.122959 L 58.306843 207.81039 L 114.721581 173.009749 L 274.523331 172.689461 Z M 274.230894 26.783519"/>
                        </clipPath>
                        <g id="g5" clip-path="url(#clipPath5)">
                            <path id="Path" fill="#000000" stroke="none" d="M 28.882448 27.275269 L 274.37674 26.783234 L 274.738708 207.376602 L 29.24441 207.868637 Z M 28.882448 27.275269"/>
                        </g>
                    </g>
                </g>
            </g>
        </g>
    </g>
    <g id="g6">
        <g id="g7">
            <g id="g8">
                <path id="path1" fill="#eeede9" stroke="none" d="M 99.824066 78.839508 C 103.798218 81.529488 106.945915 85.054436 109.261971 89.424805 C 111.58844 93.795135 112.50914 98.397469 112.018822 103.231789 C 111.537811 107.514015 110.086876 111.20443 107.666008 114.30304 C 105.255516 117.39122 102.291557 119.78257 98.7845 121.466698 C 95.272224 123.140396 91.539719 124.074974 87.581749 124.259987 C 83.634171 124.43457 79.851616 123.785896 76.223633 122.303574 C 72.595634 120.810844 69.533592 118.436775 67.042671 115.176132 C 65.758003 113.470375 65.223557 111.877693 65.428902 110.387688 C 65.634224 108.887268 66.282631 107.568268 67.379295 106.425438 C 68.486389 105.287796 69.859779 104.482964 71.499481 104.021347 C 73.133965 103.549324 74.790169 103.525162 76.457687 103.948914 C 78.125214 104.377853 79.564781 105.411438 80.776405 107.044418 C 81.345673 107.824532 82.414261 108.265106 83.987396 108.37133 C 85.555298 108.46714 87.117638 108.38588 88.674431 108.132759 C 90.241631 107.879623 91.345276 107.616989 91.985336 107.33445 C 93.468285 106.623154 94.585983 105.574036 95.333199 104.181908 C 96.080414 102.794983 96.348206 101.278824 96.136589 99.638618 C 95.908646 97.654694 95.191818 96.0103 93.980858 94.705429 C 92.76989 93.390152 91.319717 92.268051 89.64077 91.339134 C 87.972244 90.415382 86.282921 89.507301 84.572815 88.620102 C 82.873116 87.738098 81.386795 86.767105 80.10865 85.712387 C 76.545074 82.584114 74.366356 79.171783 73.567276 75.475479 C 72.778625 71.784332 73.036911 68.12236 74.336937 64.494751 C 75.647369 60.867126 77.687622 57.560928 80.462875 54.565765 C 83.232941 51.575836 86.394897 49.220551 89.948746 47.505081 C 91.863693 46.641876 93.634056 46.409164 95.259857 46.806946 C 96.896057 47.19429 98.303902 47.988342 99.472992 49.194351 C 100.652489 50.400299 101.46257 51.789307 101.897995 53.356155 C 102.328209 54.912567 102.263489 56.407516 101.698647 57.835709 C 101.128563 59.25354 99.922577 60.422623 98.080666 61.342972 C 96.873489 61.918335 95.463593 62.702408 93.856224 63.705627 C 92.259277 64.708832 90.949181 65.909363 89.925911 67.296829 C 88.897423 68.673889 88.707809 70.215958 89.351852 71.922989 C 89.713516 73.062897 90.548805 74.040405 91.857735 74.855469 C 93.177086 75.675766 94.57959 76.402115 96.070442 77.034531 C 97.571724 77.67215 98.822929 78.273834 99.824066 78.839508 Z M 99.824066 78.839508"/>
            </g>
        </g>
    </g>
    <g id="g9">
        <g id="g10">
            <g id="g11">
                <path id="path2" fill="#eeede9" stroke="none" d="M 172.662262 78.151871 C 172.895279 85.266006 173.091843 92.374985 173.246704 99.48407 C 173.396378 106.598373 173.587723 113.707382 173.810287 120.816322 C 173.882156 122.889091 173.385468 124.541138 172.320221 125.777649 C 171.265442 127.029762 169.95459 127.850098 168.387665 128.243866 C 166.831146 128.632416 165.247772 128.614746 163.637543 128.190887 C 162.03775 127.777435 160.681961 126.967651 159.57016 125.761528 C 158.468796 124.555405 157.882187 122.921158 157.810318 120.848389 C 157.733154 118.723541 157.676788 116.598648 157.630875 114.47374 C 157.595352 112.338387 157.544189 110.197861 157.472183 108.057373 L 141.471115 107.547768 C 140.903503 110.189537 140.377609 112.862473 139.883041 115.571815 C 139.388458 118.270714 138.899048 120.964424 138.420074 123.658089 C 138.059509 125.658813 137.260345 127.118752 136.012177 128.037933 C 134.77446 128.967484 133.337906 129.439117 131.702484 129.442383 C 130.061859 129.445679 128.51413 129.01651 127.054077 128.160049 C 125.594048 127.314011 124.451088 126.149635 123.630402 124.666908 C 122.820114 123.168526 122.587456 121.429398 122.932419 119.439125 C 124.194496 112.467827 125.618172 105.56913 127.203445 98.743019 C 128.799118 91.906464 131.051407 85.250908 133.955109 78.771103 C 135.365372 75.575577 137.160553 72.129257 139.351059 68.426956 C 141.551941 64.714188 144.050339 61.313339 146.85144 58.224396 C 149.662949 55.125015 152.778122 52.816666 156.191772 51.30983 C 159.38179 49.959671 161.969833 49.709717 163.961151 50.565094 C 165.962845 51.410019 167.533615 52.948563 168.678726 55.180649 C 169.818649 57.417938 170.657043 59.957947 171.194 62.800629 C 171.725769 65.648499 172.085556 68.460281 172.273407 71.235977 C 172.456039 74.001236 172.585663 76.308273 172.662262 78.151871 Z M 146.456711 89.954414 C 146.384354 90.235809 146.296371 90.517235 146.187576 90.809113 C 146.073563 91.090591 145.949127 91.366905 145.814255 91.643204 C 147.731094 91.72271 149.61145 91.797066 151.460541 91.861046 C 153.304443 91.93029 155.158722 91.99427 157.023453 92.058243 C 156.935547 89.782379 156.868454 87.490822 156.822174 85.183632 C 156.78627 82.865974 156.734726 80.532761 156.662292 78.183929 C 156.587555 77.267426 156.554367 76.298737 156.552292 75.267487 C 156.550217 74.225815 156.548096 73.173752 156.545944 72.100815 C 155.340485 73.535538 154.312027 74.928238 153.470963 76.273666 C 152.042969 78.41716 150.740112 80.62809 149.567596 82.906509 C 148.405472 85.174469 147.3685 87.52549 146.456711 89.954414 Z M 146.456711 89.954414"/>
            </g>
        </g>
    </g>
    <g id="g12">
        <g id="g13">
            <g id="g14">
                <path id="path3" fill="#eeede9" stroke="none" d="M 222.098587 55.969391 C 222.313354 53.984589 223.039505 52.462311 224.276947 51.402527 C 225.524796 50.332321 226.945496 49.740921 228.54422 49.623154 C 230.137756 49.510574 231.700821 49.793884 233.233429 50.467911 C 234.776413 51.13147 235.992081 52.181137 236.885574 53.606445 C 237.773819 55.021317 238.07933 56.72905 237.791656 58.72963 C 237.227997 63.345337 236.706543 68.231827 236.216888 73.399475 C 235.727234 78.556717 235.008438 83.730042 234.060501 88.924675 C 233.112549 94.108864 231.731873 99.069969 229.923676 103.807976 C 228.125839 108.535561 225.670776 112.769646 222.553268 116.510277 C 219.435776 120.256126 215.420883 123.232933 210.508667 125.451111 C 208.661392 126.298561 206.974258 126.479019 205.44722 125.982079 C 203.914978 125.485153 202.684021 124.586586 201.754303 123.281151 C 200.835007 121.965286 200.279922 120.471596 200.099487 118.805283 C 199.913849 117.128578 200.197144 115.544678 200.944153 114.053581 C 201.691147 112.552086 202.985672 111.377609 204.832901 110.524956 C 207.247437 109.452408 209.21315 107.932838 210.740479 105.971436 C 212.262573 104.010048 213.487411 101.856544 214.415024 99.50573 C 211.500488 100.584488 208.527557 101.090454 205.501358 101.023598 C 202.485596 100.961937 199.520584 100.223083 196.601089 98.812256 C 192.748123 96.819977 189.872864 94.086151 187.980438 90.600349 C 186.09845 87.119736 184.971024 83.304298 184.603317 79.148773 C 184.246002 74.982803 184.430389 70.826172 185.161652 66.668442 C 185.90329 62.50029 187.020782 58.748047 188.514084 55.411713 C 189.286285 53.4935 190.413895 52.194366 191.902084 51.509094 C 193.400726 50.828995 194.947235 50.643616 196.546844 50.958099 C 198.141235 51.277847 199.580078 51.952026 200.863419 52.991135 C 202.157135 54.019791 203.034775 55.330536 203.496307 56.92337 C 203.957855 58.521378 203.799835 60.245667 203.027512 62.090973 C 202.457138 63.373367 201.892761 65.025543 201.329102 67.052734 C 200.760269 69.085129 200.358337 71.236969 200.1129 73.513489 C 199.867462 75.795242 199.960236 77.909653 200.396439 79.867126 C 200.827454 81.824577 201.825195 83.296555 203.384476 84.277802 C 204.8134 85.207222 206.366074 85.495796 208.032028 85.143494 C 209.697998 84.780777 211.290237 84.02758 212.819199 82.883888 C 214.358582 81.745399 215.730942 80.430145 216.936295 78.938126 C 218.141602 77.435715 219.097168 76.048386 219.802948 74.765717 C 220.223724 71.62944 220.608063 68.493256 220.95076 65.367554 C 221.303879 62.241837 221.688232 59.110855 222.098587 55.969391 Z M 222.098587 55.969391"/>
            </g>
        </g>
    </g>
    <clipPath id="clipPath6">
        <path d="M 143.589135 65.316252 L 151.635994 65.300124 L 151.652112 73.341795 L 143.605253 73.357923 Z M 143.589135 65.316252"/>
    </clipPath>
    <g id="g15" clip-path="url(#clipPath6)">
        <clipPath id="clipPath7">
            <path d="M 147.615158 65.308183 C 145.39121 65.31264 143.592747 67.118342 143.597194 69.337088 C 143.601651 71.561052 145.407327 73.354311 147.631276 73.349854 C 149.850022 73.345407 151.64851 71.544924 151.644053 69.320959 C 151.639606 67.102214 149.833904 65.303736 147.615158 65.308183 Z M 147.615158 65.308183"/>
        </clipPath>
        <g id="g16" clip-path="url(#clipPath7)">
            <g id="g17">
                <clipPath id="clipPath8">
                    <path d="M 143.253161 64.004423 L 152.586486 63.985716 L 152.607865 74.652382 L 143.27454 74.671089 Z"/>
                </clipPath>
                <g id="g18" clip-path="url(#clipPath8)">
                    <clipPath id="clipPath9">
                        <path d="M 143.589135 65.316252 L 151.635994 65.300124 L 151.652112 73.341795 L 143.605253 73.357923 Z M 143.589135 65.316252"/>
                    </clipPath>
                    <g id="g19" clip-path="url(#clipPath9)">
                        <clipPath id="clipPath10">
                            <path d="M 147.615158 65.308183 C 145.39121 65.31264 143.592747 67.118342 143.597194 69.337088 C 143.601651 71.561052 145.407327 73.354311 147.631276 73.349854 C 149.850022 73.345407 151.64851 71.544924 151.644053 69.320959 C 151.639606 67.102214 149.833904 65.303736 147.615158 65.308183 Z M 147.615158 65.308183"/>
                        </clipPath>
                        <g id="g20" clip-path="url(#clipPath10)">
                            <path id="path4" fill="#000000" stroke="none" d="M 143.589142 65.316254 L 151.635986 65.300125 L 151.652115 73.341797 L 143.605255 73.357925 Z M 143.589142 65.316254"/>
                        </g>
                    </g>
                </g>
            </g>
        </g>
    </g>
    <clipPath id="clipPath11">
        <path d="M 159.401603 65.28456 L 167.443259 65.268442 L 167.459377 73.310113 L 159.417721 73.32623 Z M 159.401603 65.28456"/>
    </clipPath>
    <g id="g21" clip-path="url(#clipPath11)">
        <clipPath id="clipPath12">
            <path d="M 163.422423 65.276501 C 161.203678 65.280948 159.405215 67.086649 159.409662 69.305395 C 159.41412 71.529359 161.219796 73.322619 163.438541 73.318172 C 165.662505 73.313714 167.455775 71.513241 167.451318 69.289277 C 167.446871 67.070532 165.646387 65.272043 163.422423 65.276501 Z M 163.422423 65.276501"/>
        </clipPath>
        <g id="g22" clip-path="url(#clipPath12)">
            <g id="g23">
                <clipPath id="clipPath13">
                    <path d="M 159.253129 63.972355 L 168.586439 63.953648 L 168.607818 74.620314 L 159.274508 74.63902 Z"/>
                </clipPath>
                <g id="g24" clip-path="url(#clipPath13)">
                    <clipPath id="clipPath14">
                        <path d="M 159.401603 65.28456 L 167.443259 65.268442 L 167.459377 73.310113 L 159.417721 73.32623 Z M 159.401603 65.28456"/>
                    </clipPath>
                    <g id="g25" clip-path="url(#clipPath14)">
                        <clipPath id="clipPath15">
                            <path d="M 163.422423 65.276501 C 161.203678 65.280948 159.405215 67.086649 159.409662 69.305395 C 159.41412 71.529359 161.219796 73.322619 163.438541 73.318172 C 165.662505 73.313714 167.455775 71.513241 167.451318 69.289277 C 167.446871 67.070532 165.646387 65.272043 163.422423 65.276501 Z M 163.422423 65.276501"/>
                        </clipPath>
                        <g id="g26" clip-path="url(#clipPath15)">
                            <path id="path5" fill="#000000" stroke="none" d="M 159.401596 65.284561 L 167.443253 65.268448 L 167.459381 73.31012 L 159.417725 73.326233 Z M 159.401596 65.284561"/>
                        </g>
                    </g>
                </g>
            </g>
        </g>
    </g>
    <g id="g27">
        <clipPath id="clipPath16">
            <path d="M 111.389517 132.068423 L 186.056038 131.918771 L 186.114831 161.252055 L 111.448309 161.401708 Z"/>
        </clipPath>
        <g id="g28" clip-path="url(#clipPath16)">
            <g id="g29">
                <g id="g30">
                    <g id="g31">
                        <path id="path6" fill="#eeede9" stroke="none" d="M 117.686211 143.916962 C 117.362709 143.625931 117.080864 143.324417 116.830261 143.022842 C 116.579643 142.716049 116.370674 142.403961 116.203384 142.086594 C 116.036064 141.764008 115.92086 141.451736 115.868164 141.149765 L 117.012878 140.584961 C 117.081161 140.876495 117.185898 141.157532 117.327042 141.417664 C 117.463005 141.693451 117.630219 141.963943 117.828674 142.229156 C 118.021896 142.489197 118.251572 142.738739 118.517677 142.977783 C 118.935081 143.351959 119.310501 143.55954 119.643921 143.600525 C 119.977333 143.641541 120.253174 143.536804 120.476624 143.286362 C 120.601372 143.161102 120.668793 143.020355 120.68412 142.869263 C 120.709885 142.728607 120.673096 142.562012 120.578957 142.369476 C 120.495216 142.171753 120.354164 141.958481 120.160995 141.724487 L 119.367233 140.684418 C 118.933731 140.075897 118.708649 139.519073 118.697243 139.019089 C 118.69622 138.508667 118.88797 138.034332 119.277725 137.601257 C 119.594711 137.241241 119.974457 137.011307 120.422173 136.911469 C 120.864693 136.816818 121.328316 136.857574 121.818268 137.033661 C 122.318604 137.199341 122.803543 137.490021 123.278343 137.905731 C 123.554878 138.155182 123.789803 138.420334 123.988258 138.695984 C 124.197166 138.976822 124.364388 139.257736 124.489967 139.549133 C 124.615532 139.830139 124.699463 140.121643 124.741722 140.423645 L 123.617813 140.96756 C 123.544052 140.540634 123.407852 140.155487 123.19886 139.822571 C 123.000252 139.479218 122.744377 139.151611 122.426056 138.84494 C 122.159988 138.62674 121.904465 138.46579 121.654266 138.36731 C 121.404053 138.258453 121.164391 138.21727 120.945694 138.243744 C 120.737411 138.275406 120.555298 138.369522 120.404602 138.536499 C 120.222725 138.745193 120.14505 138.969315 120.176765 139.203629 C 120.203293 139.443146 120.354919 139.739716 120.636909 140.098541 L 121.409821 141.138657 C 121.86937 141.747116 122.120483 142.303894 122.163162 142.803802 C 122.205833 143.303726 122.040092 143.767609 121.665962 144.200653 C 121.333351 144.560699 120.943169 144.790634 120.500671 144.890488 C 120.068604 145.000732 119.610214 144.975601 119.125504 144.809906 C 118.63559 144.644226 118.155815 144.343094 117.686211 143.916962 Z M 117.686211 143.916962"/>
                    </g>
                </g>
            </g>
            <g id="g32">
                <g id="g33">
                    <g id="g34">
                        <path id="path7" fill="#eeede9" stroke="none" d="M 124.699486 149.072113 C 124.198875 148.765839 123.786713 148.412491 123.468201 148.012085 C 123.160095 147.606445 122.950859 147.164154 122.84053 146.680008 C 122.740593 146.195831 122.739578 145.690628 122.837486 145.15918 C 122.945793 144.632919 123.158264 144.096039 123.480095 143.553711 C 123.796745 143.027054 124.165665 142.588806 124.581635 142.239014 C 125.008026 141.894409 125.460686 141.664337 125.93441 141.548798 C 126.402908 141.422852 126.892448 141.395844 127.392586 141.462555 C 127.903137 141.534454 128.413925 141.720917 128.914536 142.022003 C 129.415115 142.312653 129.816879 142.676437 130.125031 143.102905 C 130.443573 143.518936 130.65802 143.966415 130.773544 144.434937 C 130.883865 144.908676 130.884857 145.408676 130.77655 145.934937 C 130.678619 146.450775 130.466141 146.977234 130.133881 147.519562 C 129.812057 148.061859 129.448349 148.500092 129.032364 148.834274 C 128.626801 149.178833 128.18457 149.4245 127.700485 149.566101 C 127.211174 149.702499 126.71122 149.724335 126.200615 149.631607 C 125.700447 149.549286 125.200073 149.362793 124.699486 149.072113 Z M 125.363945 147.966629 C 125.791527 148.215759 126.20842 148.329514 126.614655 148.318268 C 127.015686 148.317474 127.406036 148.176056 127.780487 147.899277 C 128.165359 147.632889 128.513535 147.241562 128.819809 146.73053 C 129.120865 146.219498 129.3022 145.739975 129.358597 145.291946 C 129.409744 144.833511 129.346436 144.427383 129.168625 144.063141 C 128.985611 143.704163 128.677704 143.397476 128.250122 143.148331 C 127.832962 142.89917 127.416046 142.774994 126.999374 142.775833 C 126.593124 142.776642 126.207993 142.912842 125.833511 143.174011 C 125.459045 143.440369 125.116081 143.831696 124.81501 144.342712 C 124.508743 144.858963 124.322235 145.354111 124.255478 145.822998 C 124.199097 146.281464 124.262413 146.687576 124.445435 147.051788 C 124.638863 147.410782 124.94677 147.717468 125.363945 147.966629 Z M 125.363945 147.966629"/>
                    </g>
                </g>
            </g>
            <g id="g35">
                <g id="g36">
                    <g id="g37">
                        <path id="path8" fill="#eeede9" stroke="none" d="M 130.163651 151.953445 L 132.648407 144.344299 L 134.003448 144.779083 L 134.994553 150.735428 L 134.806931 150.673309 L 139.110992 146.456345 L 140.466019 146.891129 L 137.981262 154.500275 L 136.647064 154.06546 L 138.448578 148.582672 L 138.594498 148.624039 L 134.914139 152.193924 L 134.017685 151.883209 L 133.132584 146.843323 L 133.278534 146.905533 L 131.47702 152.388306 Z M 130.163651 151.953445"/>
                    </g>
                </g>
            </g>
            <g id="g38">
                <g id="g39">
                    <g id="g40">
                        <path id="path9" fill="#eeede9" stroke="none" d="M 140.440475 154.880341 L 141.382889 146.940948 L 146.759171 147.576004 L 146.615768 148.784622 L 142.677353 148.334198 L 142.431564 150.438843 L 146.119934 150.868958 L 145.976517 152.077591 L 142.288147 151.647476 L 142.021744 153.856354 L 145.960159 154.306778 L 145.816757 155.515411 Z M 140.440475 154.880341"/>
                    </g>
                </g>
            </g>
            <g id="g41">
                <g id="g42">
                    <g id="g43">
                        <path id="path10" fill="#eeede9" stroke="none" d="M 149.84877 155.498413 L 149.522781 148.769867 L 146.793869 148.900345 L 146.728821 147.629639 L 153.686478 147.282379 L 153.751526 148.55307 L 151.022614 148.683533 L 151.348602 155.412079 Z M 149.84877 155.498413"/>
                    </g>
                </g>
            </g>
            <g id="g44">
                <g id="g45">
                    <g id="g46">
                        <path id="path11" fill="#eeede9" stroke="none" d="M 155.678925 155.056458 L 153.809158 147.268509 L 155.266815 146.932266 L 156.044113 150.159866 L 160.000565 149.214432 L 159.223251 145.986832 L 160.680878 145.62973 L 162.550644 153.417679 L 161.093033 153.77475 L 160.294678 150.443024 L 156.338242 151.388458 L 157.136597 154.720184 Z M 155.678925 155.056458"/>
                    </g>
                </g>
            </g>
            <g id="g47">
                <g id="g48">
                    <g id="g49">
                        <path id="path12" fill="#eeede9" stroke="none" d="M 164.684738 152.529999 L 161.73233 145.098404 L 163.12706 144.55394 L 166.079468 151.985535 Z M 164.684738 152.529999"/>
                    </g>
                </g>
            </g>
            <g id="g50">
                <g id="g51">
                    <g id="g52">
                        <path id="path13" fill="#eeede9" stroke="none" d="M 168.222809 151.148895 L 164.250565 144.198517 L 165.291046 143.613098 L 172.067642 146.474518 L 171.921967 146.558151 L 169.01593 141.480621 L 170.243744 140.790649 L 174.215988 147.741058 L 173.133896 148.347382 L 166.4198 145.48584 L 166.565475 145.402222 L 169.450623 150.458939 Z M 168.222809 151.148895"/>
                    </g>
                </g>
            </g>
            <g id="g53">
                <g id="g54">
                    <g id="g55">
                        <path id="path14" fill="#eeede9" stroke="none" d="M 179.162445 143.846069 C 178.507355 144.420303 177.841415 144.781021 177.164627 144.933411 C 176.482651 145.091034 175.821091 145.040283 175.185181 144.79155 C 174.549255 144.53241 173.949387 144.085693 173.390854 143.461792 C 172.837494 142.827515 172.48201 142.166763 172.324387 141.484772 C 172.156342 140.808014 172.196701 140.141281 172.445389 139.484528 C 172.68364 138.833008 173.109528 138.2332 173.733444 137.690277 C 174.024597 137.439697 174.331482 137.225555 174.648804 137.042603 C 174.955765 136.864914 175.262756 136.723679 175.564651 136.6241 C 175.882156 136.529724 176.19455 136.47702 176.501862 136.476395 L 176.879288 137.68396 C 176.421005 137.716141 176.00972 137.810715 175.650681 137.978104 C 175.307251 138.13504 174.95874 138.354492 174.610367 138.646851 C 174.002075 139.189743 173.690781 139.789337 173.676453 140.440399 C 173.667358 141.096664 173.960373 141.767944 174.555511 142.459473 C 175.171524 143.166565 175.792084 143.555969 176.432846 143.622375 C 177.083984 143.678375 177.734512 143.411438 178.389587 142.826782 C 178.63916 142.607544 178.867828 142.367493 179.075668 142.117081 C 179.283478 141.866669 179.454849 141.611115 179.59494 141.345215 L 179.783859 142.053162 L 178.176071 140.243866 L 176.803497 141.454956 L 176.051743 140.581467 L 178.380997 138.535126 L 180.97023 141.488281 C 180.871765 141.728073 180.72644 141.983566 180.534271 142.259979 C 180.352554 142.541595 180.14476 142.818054 179.91095 143.094574 C 179.671921 143.360687 179.422409 143.611176 179.162445 143.846069 Z M 179.162445 143.846069"/>
                    </g>
                </g>
            </g>
        </g>
    </g>
</svg>
